<?xml version="1.0" encoding="utf-8"?>
<!-- Generator: Adobe Illustrator 18.1.1, SVG Export Plug-In . SVG Version: 6.00 Build 0)  -->
<svg version="1.1" id="Capa_1" xmlns="http://www.w3.org/2000/svg" xmlns:xlink="http://www.w3.org/1999/xlink" x="0px" y="0px"
	 viewBox="-231.9 347.4 56.3 68.1" enable-background="new -231.9 347.4 56.3 68.1" xml:space="preserve">
<g>
	<path style="fill:rgb(211,25,150);" d="M-197.5,360.7l-1.1,1.5h21.6v11.1h-53.3v-11.1h26.2h1.6l1.1-1.5h-2.1h-28.3v54.8h56.3v-54.8H-197.5z M-230.4,413.3v-38.5
		h53.3v38.5H-230.4z"/>
	<path style="fill:rgb(211,25,150);" d="M-199.2,356.2l-4.3,12.2l6.7-11.1c0.3,0,0.6,0.1,0.9,0.1c2.8,0,5-2.3,5-5c0-2.8-2.3-5-5-5c-2.8,0-5,2.3-5,5
		C-200.9,353.9-200.3,355.3-199.2,356.2z"/>
</g>
</svg>
